<?xml version="1.0" encoding="UTF-8"?> <svg xmlns="http://www.w3.org/2000/svg" xmlns:xlink="http://www.w3.org/1999/xlink" xmlns:svgjs="http://svgjs.com/svgjs" width="512" height="512" x="0" y="0" viewBox="0 0 32 32" style="enable-background:new 0 0 512 512" xml:space="preserve"> <g> <path d="M10 22V6c0-2.206-1.794-4-4-4S2 3.794 2 6v16c0 .182.049.36.143.515l3 5a1 1 0 0 0 1.714 0l3-5A.994.994 0 0 0 10 22zm-3-2.858V7.352c.356.21.693.537 1 .975v11.25a4.019 4.019 0 0 0-1-.435zM4 8.327c.307-.438.644-.765 1-.975v11.79c-.346.095-.68.241-1 .434zM6 4a2 2 0 0 1 1.943 1.545C7.336 5.192 6.683 5 6 5s-1.336.192-1.943.545A2 2 0 0 1 6 4zm0 21.057-1.798-2.998c1.087-1.322 2.509-1.322 3.596 0z" fill="#ffffff" data-original="#000000" opacity="1"></path> <path d="M28 24.184V7.816A2.995 2.995 0 0 0 30 5c0-1.654-1.346-3-3-3a2.995 2.995 0 0 0-2.816 2H12a1 1 0 1 0 0 2h12.184A2.995 2.995 0 0 0 26 7.816v1.871l-.976.56a7.232 7.232 0 0 0-1.005-.57V8a1 1 0 0 0-1-1h-4a1 1 0 0 0-1 1v1.677a7.292 7.292 0 0 0-1.007.57l-1.479-.848a1 1 0 0 0-1.361.366l-2.018 3.464a1 1 0 0 0 .368 1.372l1.466.838a6.428 6.428 0 0 0 0 1.122l-1.466.838a1.002 1.002 0 0 0-.368 1.372l2.018 3.464a.998.998 0 0 0 1.361.366l1.479-.847c.315.214.653.404 1.007.57V24a1 1 0 0 0 1 1h4a1 1 0 0 0 1-1v-1.678c.352-.164.69-.354 1.005-.568l.976.559v1.871A2.996 2.996 0 0 0 24.184 26H9a1 1 0 1 0 0 2h15.184A2.995 2.995 0 0 0 27 30c1.654 0 3-1.346 3-3a2.995 2.995 0 0 0-2-2.816zM27 4a1 1 0 1 1-.001 2.001A1 1 0 0 1 27 4zm-1.555 15.69a1.003 1.003 0 0 0-1.143.106c-.454.385-1.013.7-1.614.912a.999.999 0 0 0-.67.943V23h-2v-1.349a1 1 0 0 0-.668-.943 5.164 5.164 0 0 1-1.616-.912 1.003 1.003 0 0 0-1.143-.106l-1.19.682-1.011-1.736 1.175-.673a1 1 0 0 0 .488-1.052c-.06-.318-.09-.617-.09-.911s.03-.593.09-.911a1 1 0 0 0-.488-1.052l-1.175-.673 1.011-1.736 1.19.682a.998.998 0 0 0 1.143-.106 5.164 5.164 0 0 1 1.616-.912 1 1 0 0 0 .669-.943V9h2v1.349c0 .424.267.802.669.943.601.212 1.16.527 1.614.912a.998.998 0 0 0 1.143.106l.555-.318v8.016zM27 28a1 1 0 1 1 .001-2.001A1 1 0 0 1 27 28z" fill="#ffffff" data-original="#000000" opacity="1"></path> <path d="M21 13c-1.654 0-3 1.346-3 3s1.346 3 3 3 3-1.346 3-3-1.346-3-3-3zm0 4a1 1 0 1 1 .001-2.001A1 1 0 0 1 21 17z" fill="#ffffff" data-original="#000000" opacity="1"></path> </g> </svg> 