<?xml version="1.0" encoding="UTF-8"?> <svg xmlns="http://www.w3.org/2000/svg" xmlns:xlink="http://www.w3.org/1999/xlink" xmlns:svgjs="http://svgjs.com/svgjs" width="512" height="512" x="0" y="0" viewBox="0 0 32 32" style="enable-background:new 0 0 512 512" xml:space="preserve"> <g> <path d="M29 2H3a1 1 0 0 0-1 1v26a1 1 0 0 0 1 1h18a1 1 0 0 0 0-2H4V9h24v12a1 1 0 0 0 2 0V3a1 1 0 0 0-1-1zM4 7V4h24v3z" fill="#ffffff" data-original="#000000" opacity="1"></path> <path d="M6 24h11a1 1 0 0 0 0-2H6a1 1 0 0 0 0 2zM6 27h12a1 1 0 0 0 0-2H6a1 1 0 0 0 0 2zM18 16a.999.999 0 0 0 .707-1.707l-3-3a.999.999 0 0 0-1.414 0L13 12.586l-2.293-2.293a.999.999 0 0 0-1.414 0l-4 4a.999.999 0 1 0 1.414 1.414L10 12.414l3.293 3.293a.997.997 0 0 0 1.414 0 .999.999 0 0 0 0-1.414L14.414 14l.586-.586 2.293 2.293A.997.997 0 0 0 18 16zM10 20h3a1 1 0 0 0 0-2h-3a1 1 0 0 0 0 2zM26.688 23.274l.759-.379a1.001 1.001 0 0 0-.096-1.831l-8-3a1 1 0 0 0-1.287 1.287l3 8a1 1 0 0 0 .884.647.973.973 0 0 0 .947-.551l.379-.759 3.019 3.019a.997.997 0 0 0 1.414 0l2-2a.999.999 0 0 0 0-1.414zM27 27.586l-3.293-3.293a1 1 0 0 0-1.575.211l-1.423-3.794 3.794 1.423a1.002 1.002 0 0 0-.211 1.575L27.586 27z" fill="#ffffff" data-original="#000000" opacity="1"></path> <path d="M8.707 17.293a.999.999 0 0 0-1.414 0l-1 1a.999.999 0 0 0 0 1.414l1 1a.997.997 0 0 0 1.414 0 .999.999 0 0 0 0-1.414L8.414 19l.293-.293a.999.999 0 0 0 0-1.414zM15 21a.997.997 0 0 0 .707-.293l1-1a.999.999 0 0 0 0-1.414l-1-1a.999.999 0 1 0-1.414 1.414l.293.293-.293.293A.999.999 0 0 0 15 21zM26 10h-6a1 1 0 0 0 0 2h6a1 1 0 0 0 0-2zM26 13h-5a1 1 0 0 0 0 2h5a1 1 0 0 0 0-2zM26 16h-4a1 1 0 0 0 0 2h4a1 1 0 0 0 0-2z" fill="#ffffff" data-original="#000000" opacity="1"></path> </g> </svg> 