<?xml version="1.0" encoding="UTF-8"?> <svg xmlns="http://www.w3.org/2000/svg" xmlns:xlink="http://www.w3.org/1999/xlink" xmlns:svgjs="http://svgjs.com/svgjs" width="512" height="512" x="0" y="0" viewBox="0 0 32 32" style="enable-background:new 0 0 512 512" xml:space="preserve"> <g> <path d="M12.707 8.293a1 1 0 0 0-1.414 0l-3 3a1 1 0 0 0 0 1.414l3 3a.997.997 0 0 0 1.414 0 1 1 0 0 0 0-1.414L10.414 12l2.293-2.293a1 1 0 0 0 0-1.414zM20.707 8.293a1 1 0 1 0-1.414 1.414L21.586 12l-2.293 2.293a1 1 0 1 0 1.414 1.414l3-3a1 1 0 0 0 0-1.414zM17.316 8.051a.998.998 0 0 0-1.265.633l-2 6a1 1 0 0 0 1.898.632l2-6a1 1 0 0 0-.633-1.265z" fill="#ffffff" data-original="#000000" opacity="1"></path> <path d="M26 2H6C3.794 2 2 3.794 2 6v12c0 2.206 1.794 4 4 4h7v2h-1.382a1.99 1.99 0 0 0-1.789 1.105l-1.724 3.448A1.001 1.001 0 0 0 9 30h14a1 1 0 0 0 .895-1.447l-1.724-3.448A1.99 1.99 0 0 0 20.38 24H19v-2h7c2.206 0 4-1.794 4-4V6c0-2.206-1.794-4-4-4zm-8 25a1 1 0 0 0 1-1h1.382l1 2H10.618l1-2H13a1 1 0 0 0 2 0v-4h2v4a1 1 0 0 0 1 1zm10-9c0 1.103-.897 2-2 2H6c-1.103 0-2-.897-2-2V6c0-1.103.897-2 2-2h20c1.103 0 2 .897 2 2z" fill="#ffffff" data-original="#000000" opacity="1"></path> </g> </svg> 