<?xml version="1.0" encoding="UTF-8"?> <svg xmlns="http://www.w3.org/2000/svg" xmlns:xlink="http://www.w3.org/1999/xlink" xmlns:svgjs="http://svgjs.com/svgjs" width="512" height="512" x="0" y="0" viewBox="0 0 32 32" style="enable-background:new 0 0 512 512" xml:space="preserve" class=""> <g> <path d="m2.628 3.929 5 2a1.001 1.001 0 0 0 .744-1.858l-5-2a1 1 0 0 0-.744 1.858zM8 7H3a1 1 0 0 0 0 2h5a1 1 0 0 0 0-2zM8.929 10.628a1.002 1.002 0 0 0-1.3-.557l-5 2a1 1 0 0 0 .742 1.857l5-2a1 1 0 0 0 .558-1.3zM18.97 24.243 19.28 23H20a1 1 0 1 0 0-2h-.22l.5-2H21a1 1 0 1 0 0-2h-.22l.189-.757a.999.999 0 0 0-.728-1.213.996.996 0 0 0-1.212.728L18.72 17h-1.939l.189-.757a1 1 0 1 0-1.941-.485L14.719 17H14a1 1 0 0 0 0 2h.219l-.5 2H13a1 1 0 0 0 0 2h.219l-.189.757a1 1 0 0 0 1.94.486L15.281 23h1.939l-.189.757a1 1 0 1 0 1.939.486zM15.781 21l.5-2h1.939l-.5 2z" fill="#ffffff" data-original="#000000" opacity="1"></path> <path d="M29 25h-1v-8.969C28 14.36 26.654 13 25 13h-5.885c.21-.824.72-1.42 1.592-2.293.065-.065.103-.144.146-.22A3.303 3.303 0 0 0 22 8a3.32 3.32 0 0 0-2.838-3.272l-5.02-.718A1.002 1.002 0 0 0 13 5c-1.654 0-3 1.346-3 3s1.346 3 3 3a1 1 0 0 0 1.142.99l3.419-.488a5.052 5.052 0 0 0-.477 1.499H9c-1.682 0-3 1.318-3 3v9H5a1 1 0 0 0-1 1c0 2.206 1.794 4 4 4h18c2.206 0 4-1.794 4-4A1 1 0 0 0 29 25zM12 8c0-.551.449-1 1-1v2c-.551 0-1-.449-1-1zm3-1.847 3.879.554C19.519 6.798 20 7.354 20 8s-.481 1.202-1.121 1.293L15 9.847zM8 16c0-.57.43-1 1-1h16c.561 0 1 .453 1 1.031V25H8zm18 12H8a2 2 0 0 1-1.731-1h21.463c-.346.597-.993 1-1.732 1z" fill="#ffffff" data-original="#000000" opacity="1"></path> </g> </svg> 