<?xml version="1.0" encoding="UTF-8"?> <svg xmlns="http://www.w3.org/2000/svg" xmlns:xlink="http://www.w3.org/1999/xlink" xmlns:svgjs="http://svgjs.com/svgjs" width="512" height="512" x="0" y="0" viewBox="0 0 32 32" style="enable-background:new 0 0 512 512" xml:space="preserve"> <g> <path d="M29 15.018h-.683a7.016 7.016 0 0 0-.555-.957l.335-.575a1.001 1.001 0 0 0-.368-1.372l-3.464-1.982a1 1 0 0 0-1.362.365l-.338.58a6.49 6.49 0 0 0-.565-.024V6a1 1 0 0 0-1-1h-3a1 1 0 0 0-1-1h-2V3a1 1 0 0 0-1-1h-4a1 1 0 0 0-1 1v1H7a1 1 0 0 0-1 1H3a1 1 0 0 0-1 1v23a1 1 0 0 0 1 1h18a1 1 0 0 0 1-1v-4.053c.187 0 .375-.008.565-.024l.338.58a.998.998 0 0 0 1.362.365l3.464-1.982a1.004 1.004 0 0 0 .368-1.372l-.335-.575c.21-.303.395-.623.555-.957H29a1 1 0 0 0 1-1v-3.964a1 1 0 0 0-1-1zM22 16c1.103 0 2 .897 2 2s-.897 2-2 2zM8 6h2a1 1 0 0 0 1-1V4h2v1a1 1 0 0 0 1 1h2v1H8zm12 22H4V7h2v1a1 1 0 0 0 1 1h10a1 1 0 0 0 1-1V7h2v7h-4.586l-1.707-1.707A1 1 0 0 0 13 12h-2.278c-.347-.595-.985-1-1.722-1-1.103 0-2 .897-2 2s.897 2 2 2c.737 0 1.375-.405 1.722-1h1.864l1.707 1.707A1 1 0 0 0 15 16h5v1h-9.278c-.347-.595-.985-1-1.722-1-1.103 0-2 .897-2 2s.897 2 2 2c.737 0 1.375-.405 1.722-1H20v1h-5a1 1 0 0 0-.707.293L12.586 22h-1.864c-.347-.595-.985-1-1.722-1-1.103 0-2 .897-2 2s.897 2 2 2c.737 0 1.375-.405 1.722-1H13a1 1 0 0 0 .707-.293L15.414 22H20zm8-9.018h-.349c-.422 0-.8.266-.941.664a4.908 4.908 0 0 1-.908 1.562 1 1 0 0 0-.108 1.157l.167.285-1.728.989-.174-.298a.998.998 0 0 0-1.043-.482c-.324.06-.624.088-.916.088V22c2.206 0 4-1.794 4-4s-1.794-4-4-4v-.947c.292 0 .592.028.916.088a.997.997 0 0 0 1.043-.482l.174-.298 1.728.989-.167.285a1 1 0 0 0 .108 1.157c.396.459.702.985.908 1.562a.999.999 0 0 0 .941.664H28z" fill="#ffffff" data-original="#000000" opacity="1"></path> </g> </svg> 