<?xml version="1.0" encoding="UTF-8"?> <svg xmlns="http://www.w3.org/2000/svg" width="202" height="67" viewBox="0 0 202 67" fill="none"> <g clip-path="url(#clip0_945_5936)"> <path d="M60.0843 13.9431C60.0843 14.5478 60.1294 15.0983 60.2198 15.5946C60.3101 16.091 60.4727 16.5241 60.6895 16.8761C60.9062 17.2371 61.1862 17.5168 61.5295 17.7154C61.8727 17.9049 62.2972 18.0042 62.8121 18.0042C63.7243 18.0042 64.4018 17.6883 64.8353 17.0566C65.2689 16.4339 65.4856 15.387 65.4856 13.9431C65.4856 13.3656 65.4495 12.8331 65.3682 12.3368C65.2869 11.8404 65.1424 11.4163 64.9347 11.0553C64.7179 10.6853 64.4469 10.3965 64.1037 10.1889C63.7605 9.98137 63.3269 9.8821 62.8121 9.8821C61.8908 9.8821 61.2133 10.207 60.7617 10.8567C60.3101 11.5155 60.0843 12.5443 60.0843 13.9431ZM55.6855 12.7429H57.4739C57.6365 11.1094 58.1694 9.85503 59.0727 8.9616C59.9759 8.06818 61.2133 7.62598 62.794 7.62598C63.7334 7.62598 64.5372 7.77939 65.2237 8.08623C65.9102 8.39306 66.4702 8.81721 66.9128 9.37673C67.3553 9.92722 67.6805 10.595 67.8973 11.3711C68.105 12.1473 68.2134 13.0046 68.2134 13.9431C68.2134 15.9556 67.7528 17.5168 66.8315 18.6178C65.9102 19.7188 64.5734 20.2603 62.8121 20.2603C61.9901 20.2603 61.2585 20.1339 60.6353 19.8813C60.012 19.6286 59.4791 19.2766 59.0275 18.8164C58.5849 18.3561 58.2326 17.8056 57.9707 17.1559C57.7088 16.5061 57.5462 15.7932 57.4739 14.999H55.6855V20.0256H53.1113V7.86964H55.6855V12.7429Z" fill="#67768C"></path> <path d="M76.4057 13.0592H72.6121V20.0261H70.0469V10.9023H76.4057V13.0592Z" fill="#67768C"></path> <path d="M79.6836 15.4687C79.6836 15.8568 79.7288 16.2178 79.81 16.5517C79.8913 16.8856 80.0088 17.1744 80.1804 17.427C80.352 17.6797 80.5688 17.8783 80.8307 18.0227C81.1017 18.1761 81.4268 18.2483 81.8062 18.2483C83.2152 18.2483 83.9288 17.3278 83.9288 15.4687C83.9288 15.0626 83.8927 14.6926 83.8114 14.3497C83.7391 14.0068 83.6217 13.718 83.4501 13.4653C83.2785 13.2216 83.0617 13.0231 82.7907 12.8877C82.5198 12.7433 82.1856 12.6802 81.8062 12.6802C81.1468 12.6802 80.632 12.8968 80.2526 13.339C79.8733 13.7721 79.6836 14.4851 79.6836 15.4687ZM77.1816 15.4687C77.1816 13.9707 77.5791 12.7885 78.3829 11.9311C79.1778 11.0738 80.3249 10.6406 81.8062 10.6406C82.583 10.6406 83.2604 10.767 83.8385 11.0106C84.4166 11.2543 84.9043 11.5882 85.2837 12.0214C85.663 12.4636 85.9521 12.9689 86.1417 13.5555C86.3314 14.1421 86.4308 14.7738 86.4308 15.4687C86.4308 16.2178 86.3224 16.8856 86.1146 17.4812C85.9069 18.0768 85.6088 18.5822 85.2114 18.9973C84.823 19.4124 84.3353 19.7283 83.7662 19.9539C83.1882 20.1705 82.5378 20.2788 81.8062 20.2788C81.0204 20.2788 80.3339 20.1615 79.7559 19.9178C79.1778 19.6742 78.6991 19.3402 78.3107 18.9071C77.9313 18.4649 77.6423 17.9595 77.4616 17.3729C77.272 16.7863 77.1816 16.1546 77.1816 15.4687Z" fill="#67768C"></path> <path d="M92.5816 12.6802C92.0306 12.6802 91.597 12.7975 91.299 13.0502C91.0009 13.3029 90.7661 13.6819 90.6035 14.2053V17.7429C90.8022 17.9054 91.019 18.0407 91.2628 18.131C91.5067 18.2212 91.8138 18.2663 92.1841 18.2663C92.97 18.2663 93.5571 18.0227 93.9364 17.5263C94.3248 17.039 94.5145 16.2539 94.5145 15.18C94.5145 14.4038 94.37 13.7902 94.0719 13.348C93.7738 12.8968 93.2771 12.6802 92.5816 12.6802ZM88.1738 10.9023H89.908L90.206 12.0304H90.4138C90.7751 11.5701 91.1906 11.2272 91.6603 10.9926C92.139 10.7579 92.69 10.6406 93.3312 10.6406C94.5597 10.6406 95.481 11.0106 96.0952 11.7506C96.7094 12.4816 97.0165 13.6458 97.0165 15.2431C97.0165 16.0102 96.9171 16.7051 96.7184 17.3188C96.5197 17.9415 96.2306 18.4739 95.8513 18.9161C95.4719 19.3673 95.0022 19.7103 94.4332 19.9449C93.8732 20.1795 93.2319 20.2968 92.5003 20.2968C92.1028 20.2968 91.7596 20.2607 91.4706 20.1886C91.1815 20.1073 90.8925 20.0081 90.6035 19.8817V23.4825H88.1738V10.9023Z" fill="#67768C"></path> <path d="M105.732 19.4666C105.344 19.7373 104.865 19.9359 104.314 20.0712C103.763 20.2156 103.194 20.2788 102.607 20.2788C101.812 20.2788 101.153 20.1705 100.611 19.9359C100.078 19.7012 99.6359 19.3763 99.2927 18.9432C98.9494 18.519 98.7056 18.0136 98.552 17.427C98.4075 16.8405 98.3262 16.1907 98.3262 15.4687C98.3262 13.9526 98.7056 12.7704 99.4462 11.9221C100.196 11.0738 101.279 10.6406 102.707 10.6406C103.402 10.6406 103.971 10.6948 104.423 10.8121C104.865 10.9204 105.263 11.0648 105.615 11.2362L105.019 13.1765C104.721 13.0502 104.423 12.9599 104.125 12.8968C103.827 12.8336 103.483 12.7975 103.095 12.7975C102.363 12.7975 101.803 13.005 101.415 13.4292C101.027 13.8533 100.828 14.5302 100.828 15.4687C100.828 15.8387 100.882 16.1907 100.972 16.5066C101.063 16.8224 101.207 17.1022 101.406 17.3458C101.605 17.5895 101.849 17.779 102.156 17.9234C102.454 18.0588 102.806 18.131 103.212 18.131C103.7 18.131 104.089 18.0858 104.369 17.9956C104.658 17.9144 104.92 17.7971 105.181 17.6436L105.732 19.4666Z" fill="#67768C"></path> <path d="M110.548 16.2358H109.69V20.0261H107.26V10.9023H109.69V14.8461L110.476 14.5212L112.806 10.9023H115.434C115.028 11.4619 114.63 12.0214 114.242 12.5809C113.854 13.1404 113.456 13.6999 113.068 14.2595L111.921 15.0175L113.14 15.7666C113.574 16.4885 114.025 17.1924 114.477 17.8963C114.929 18.5912 115.371 19.3042 115.814 20.0261H112.996L110.548 16.2358Z" fill="#67768C"></path> <path d="M123.075 15.9019L123.174 14.3587L122.081 15.8929L118.477 20.0261H117.023V10.9023H119.453V15.198L119.371 16.4434H119.579C119.715 16.2449 119.859 16.0373 120.004 15.8207C120.148 15.6041 120.293 15.3875 120.428 15.198L124.041 10.9023H125.504V20.0261H123.075V15.9019Z" fill="#67768C"></path> <path d="M130.888 7.65234C130.979 8.13967 131.141 8.47357 131.367 8.64504C131.602 8.8165 131.9 8.90675 132.27 8.90675C132.659 8.90675 132.957 8.8165 133.183 8.63601C133.417 8.45552 133.571 8.13967 133.661 7.67039L135.477 8.13967C135.323 8.90675 134.944 9.47529 134.339 9.86335C133.743 10.2424 133.02 10.4319 132.189 10.4319C131.783 10.4319 131.394 10.3958 131.033 10.3146C130.663 10.2334 130.337 10.098 130.03 9.91749C129.732 9.72798 129.47 9.49334 129.254 9.20456C129.046 8.91577 128.892 8.55479 128.811 8.13967L130.888 7.65234ZM133.806 15.9007L133.905 14.3576L132.812 15.8917L129.217 20.0249H127.754V10.9012H130.184V15.1968L130.103 16.4422H130.31C130.446 16.2437 130.59 16.0361 130.735 15.8195C130.879 15.6029 131.024 15.3863 131.159 15.1968L134.781 10.9012H136.236V20.0249H133.806V15.9007Z" fill="#67768C"></path> <path d="M59.5964 33.8959H55.8028V40.8628H53.2285V31.748H59.5964V33.8959Z" fill="#67768C"></path> <path d="M62.8749 36.3144C62.8749 36.6935 62.9111 37.0544 62.9923 37.3884C63.0736 37.7223 63.2001 38.0201 63.3717 38.2637C63.5343 38.5164 63.7511 38.715 64.022 38.8684C64.293 39.0128 64.6091 39.094 64.9975 39.094C66.4066 39.094 67.1201 38.1645 67.1201 36.3144C67.1201 35.9083 67.075 35.5293 67.0027 35.1954C66.9305 34.8525 66.804 34.5547 66.6414 34.302C66.4698 34.0583 66.253 33.8598 65.9821 33.7244C65.7021 33.589 65.3769 33.5168 64.9975 33.5168C64.3382 33.5168 63.8143 33.7334 63.444 34.1756C63.0646 34.6178 62.8749 35.3308 62.8749 36.3144ZM60.373 36.3144C60.373 34.8073 60.7704 33.6251 61.5743 32.7678C62.3691 31.9105 63.5162 31.4863 64.9975 31.4863C65.7743 31.4863 66.4517 31.6036 67.0299 31.8473C67.608 32.091 68.0866 32.4339 68.475 32.8671C68.8544 33.3003 69.1434 33.8056 69.3331 34.3922C69.5228 34.9788 69.6221 35.6196 69.6221 36.3144C69.6221 37.0544 69.5137 37.7223 69.306 38.3179C69.0982 38.9135 68.7911 39.4189 68.4027 39.834C68.0053 40.2491 67.5266 40.574 66.9485 40.7906C66.3795 41.0072 65.7292 41.1245 64.9975 41.1245C64.2117 41.1245 63.5253 40.9982 62.9472 40.7545C62.3691 40.5108 61.8814 40.1769 61.502 39.7438C61.1226 39.3106 60.8336 38.7962 60.653 38.2096C60.4633 37.632 60.373 36.9913 60.373 36.3144Z" fill="#67768C"></path> <path d="M78.3381 40.3033C77.9407 40.574 77.471 40.7725 76.9201 40.9169C76.3691 41.0523 75.8 41.1245 75.2039 41.1245C74.4181 41.1245 73.7587 41.0072 73.2168 40.7725C72.6748 40.5469 72.2413 40.213 71.8981 39.7889C71.5548 39.3557 71.311 38.8503 71.1574 38.2637C71.0039 37.6771 70.9316 37.0274 70.9316 36.3144C70.9316 34.7983 71.3019 33.6071 72.0516 32.7588C72.8013 31.9105 73.8852 31.4863 75.3123 31.4863C76.0078 31.4863 76.5768 31.5405 77.0194 31.6488C77.471 31.7571 77.8685 31.9015 78.2117 32.0729L77.6246 34.0222C77.3175 33.8959 77.0194 33.7966 76.7304 33.7334C76.4323 33.6703 76.0891 33.6342 75.6917 33.6342C74.96 33.6342 74.4 33.8507 74.0207 34.2659C73.6323 34.69 73.4336 35.3759 73.4336 36.3144C73.4336 36.6844 73.4787 37.0274 73.5781 37.3432C73.6684 37.6591 73.8129 37.9479 74.0116 38.1825C74.2013 38.4262 74.4542 38.6247 74.7523 38.7601C75.0594 38.8954 75.4117 38.9676 75.8181 38.9676C76.3059 38.9676 76.6852 38.9225 76.9743 38.8413C77.2543 38.7511 77.5252 38.6337 77.7781 38.4803L78.3381 40.3033Z" fill="#67768C"></path> <path d="M83.8294 36.8018L84.2178 38.2547H84.3894L84.7236 36.8018L86.2682 31.748H88.7521L85.7262 39.9964C85.4733 40.6733 85.2295 41.2869 85.0036 41.8374C84.7778 42.3789 84.534 42.8392 84.272 43.2272C84.0011 43.6062 83.703 43.895 83.3688 44.1026C83.0436 44.3011 82.6552 44.4004 82.2036 44.4004C81.8965 44.4004 81.6075 44.3824 81.3365 44.3282C81.0655 44.2741 80.8307 44.1928 80.632 44.0936L81.1378 42.2165C81.3094 42.2706 81.4901 42.3067 81.6797 42.3067C81.8423 42.3067 81.9959 42.2887 82.1494 42.2526C82.2939 42.2165 82.4385 42.1533 82.5649 42.054C82.6914 41.9548 82.8088 41.8104 82.9172 41.6299C83.0346 41.4584 83.1249 41.2148 83.2062 40.9169L79.0332 31.748H81.9778L83.8294 36.8018Z" fill="#67768C"></path> <path d="M95.1661 38.8323V33.7786H92.89C92.8629 34.2298 92.8176 34.6991 92.7544 35.1864C92.6821 35.6647 92.5918 36.134 92.4924 36.5942C92.384 37.0364 92.2666 37.4606 92.1221 37.8576C91.9866 38.2547 91.8331 38.5706 91.6705 38.8323H95.1661ZM99.0591 42.9294H97.3609L97.0447 40.8628H90.126L89.7917 42.9294H88.0938V38.7059H89.2409C89.3402 38.5706 89.4847 38.3359 89.6654 38.0111C89.846 37.6862 90.0176 37.253 90.1892 36.6935C90.3518 36.134 90.4963 35.4481 90.6227 34.6359C90.7401 33.8147 90.8124 32.8581 90.8214 31.748H97.6049V38.7059H99.0591V42.9294Z" fill="#67768C"></path> <path d="M103.919 39.0577C104.461 39.0577 104.894 38.9314 105.219 38.6697C105.544 38.417 105.788 38.1553 105.933 37.8755V36.8287C105.879 36.8106 105.788 36.7835 105.662 36.7655C105.544 36.7384 105.409 36.7204 105.264 36.6933C105.12 36.6662 104.975 36.6572 104.831 36.6392C104.686 36.6301 104.551 36.6211 104.442 36.6211C103.819 36.6211 103.35 36.7384 103.052 36.964C102.744 37.1896 102.6 37.4694 102.6 37.8033C102.6 38.2184 102.717 38.5343 102.952 38.7419C103.187 38.9494 103.512 39.0577 103.919 39.0577ZM100.739 32.3706C101.263 32.1359 101.895 31.9464 102.663 31.793C103.422 31.6486 104.199 31.5674 105.012 31.5674C105.653 31.5674 106.186 31.6486 106.619 31.793C107.053 31.9464 107.405 32.163 107.658 32.4428C107.911 32.7315 108.092 33.0745 108.2 33.4716C108.308 33.8686 108.372 34.3108 108.372 34.7982C108.372 35.3938 108.344 35.9713 108.299 36.5579C108.254 37.1355 108.227 37.7492 108.227 38.3989C108.227 38.8321 108.254 39.2653 108.317 39.6804C108.372 40.0955 108.471 40.4926 108.597 40.8807H106.61L106.213 39.527H106.005C105.707 39.9331 105.319 40.276 104.858 40.5648C104.397 40.8536 103.801 40.998 103.07 40.998C102.627 40.998 102.221 40.9348 101.859 40.8085C101.498 40.6821 101.182 40.5016 100.92 40.267C100.658 40.0233 100.459 39.7436 100.315 39.4187C100.17 39.0938 100.098 38.7419 100.098 38.3628C100.098 37.334 100.441 36.5489 101.128 36.0255C101.814 35.5021 102.862 35.2313 104.271 35.2313C104.587 35.2313 104.912 35.2584 105.237 35.3126C105.563 35.3667 105.788 35.4028 105.915 35.4299C105.951 35.1862 105.969 34.9786 105.969 34.7982C105.969 34.356 105.861 34.0311 105.644 33.8235C105.418 33.6159 105.012 33.5167 104.406 33.5167C103.846 33.5167 103.304 33.5798 102.781 33.7152C102.257 33.8506 101.787 34.013 101.381 34.2116L100.739 32.3706Z" fill="#67768C"></path> <path d="M114.991 33.5168C114.431 33.5168 114.006 33.6432 113.699 33.8868C113.401 34.1395 113.166 34.5186 113.003 35.042V38.5886C113.202 38.7511 113.428 38.8774 113.672 38.9676C113.916 39.0579 114.214 39.103 114.593 39.103C115.379 39.103 115.966 38.8593 116.345 38.372C116.725 37.8757 116.914 37.0905 116.914 36.0166C116.914 35.2405 116.77 34.6269 116.472 34.1847C116.183 33.7425 115.686 33.5168 114.991 33.5168ZM110.574 31.748H112.308L112.606 32.8761H112.814C113.175 32.4068 113.591 32.0639 114.069 31.8293C114.539 31.5946 115.099 31.4863 115.74 31.4863C116.969 31.4863 117.89 31.8473 118.504 32.5873C119.118 33.3183 119.425 34.4915 119.425 36.0888C119.425 36.8469 119.326 37.5418 119.127 38.1645C118.929 38.7781 118.64 39.3106 118.26 39.7618C117.872 40.204 117.402 40.5469 116.842 40.7816C116.282 41.0162 115.632 41.1425 114.9 41.1425C114.512 41.1425 114.169 41.0974 113.88 41.0252C113.591 40.953 113.292 40.8447 113.003 40.7184V44.3192H110.574V31.748Z" fill="#67768C"></path> <path d="M128.143 40.3033C127.745 40.574 127.276 40.7725 126.725 40.9169C126.174 41.0523 125.605 41.1245 125.009 41.1245C124.223 41.1245 123.563 41.0072 123.022 40.7725C122.48 40.5469 122.037 40.213 121.703 39.7889C121.36 39.3557 121.107 38.8503 120.962 38.2637C120.809 37.6771 120.736 37.0274 120.736 36.3144C120.736 34.7983 121.107 33.6071 121.856 32.7588C122.606 31.9105 123.69 31.4863 125.117 31.4863C125.813 31.4863 126.382 31.5405 126.824 31.6488C127.276 31.7571 127.673 31.9015 128.016 32.0729L127.429 34.0222C127.122 33.8959 126.824 33.7966 126.535 33.7334C126.237 33.6703 125.894 33.6342 125.496 33.6342C124.765 33.6342 124.205 33.8507 123.816 34.2659C123.428 34.69 123.238 35.3759 123.238 36.3144C123.238 36.6844 123.283 37.0274 123.374 37.3432C123.473 37.6591 123.618 37.9479 123.807 38.1825C124.006 38.4262 124.259 38.6247 124.557 38.7601C124.855 38.8954 125.216 38.9676 125.623 38.9676C126.102 38.9676 126.49 38.9225 126.77 38.8413C127.059 38.7511 127.33 38.6337 127.583 38.4803L128.143 40.3033Z" fill="#67768C"></path> <path d="M137.228 33.8959H134.392V40.8628H131.854V33.8959H129.027V31.748H137.228V33.8959Z" fill="#67768C"></path> <path d="M140.897 39.0031C141.131 39.0482 141.33 39.0753 141.493 39.0934C141.664 39.1024 141.863 39.1024 142.098 39.1024C142.884 39.1024 143.435 39.0121 143.742 38.8226C144.049 38.6331 144.202 38.3533 144.202 37.9924C144.202 37.6675 144.067 37.4058 143.796 37.2072C143.534 36.9997 143.046 36.9004 142.342 36.9004H140.897V39.0031ZM142.378 35.4565C142.838 35.4565 143.218 35.3662 143.507 35.1948C143.796 35.0143 143.94 34.7796 143.94 34.4909C143.94 34.175 143.814 33.9313 143.561 33.7599C143.317 33.5884 142.866 33.4982 142.215 33.4982C141.989 33.4982 141.791 33.5072 141.646 33.5162C141.493 33.5252 141.357 33.5343 141.231 33.5523C141.177 33.5523 141.122 33.5523 141.05 33.5613C140.987 33.5613 140.933 33.5704 140.897 33.5704V35.4565H142.378ZM138.512 31.7474C138.991 31.7113 139.551 31.6752 140.183 31.6391C140.824 31.603 141.52 31.585 142.287 31.585C143.724 31.585 144.744 31.7745 145.349 32.1625C145.946 32.5416 146.253 33.1101 146.253 33.8591C146.253 34.2923 146.117 34.6984 145.846 35.0955C145.584 35.4926 145.169 35.7814 144.6 35.9799V36.1153C145.322 36.2687 145.846 36.5304 146.171 36.8914C146.506 37.2614 146.668 37.7307 146.668 38.3082C146.668 39.2107 146.289 39.8875 145.521 40.3387C144.753 40.79 143.543 41.0156 141.872 41.0156C141.321 41.0156 140.752 41.0065 140.138 40.9705C139.533 40.9434 138.991 40.9073 138.512 40.8622V31.7474Z" fill="#67768C"></path> <path d="M152.549 33.3905C151.835 33.3905 151.302 33.589 150.95 33.9771C150.607 34.3651 150.399 34.8615 150.345 35.4571H154.274C154.319 34.8254 154.202 34.32 153.922 33.95C153.651 33.58 153.19 33.3905 152.549 33.3905ZM156.198 40.0235C155.81 40.3303 155.277 40.583 154.599 40.7996C153.913 41.0162 153.19 41.1245 152.413 41.1245C150.851 41.1245 149.704 40.6913 148.972 39.834C148.24 38.9767 147.879 37.8035 147.879 36.3144C147.879 34.7261 148.286 33.5259 149.108 32.7046C149.93 31.8924 151.095 31.4863 152.585 31.4863C153.073 31.4863 153.552 31.5405 154.03 31.6668C154.509 31.7841 154.924 31.9917 155.295 32.2715C155.665 32.5602 155.972 32.9393 156.198 33.4176C156.424 33.9049 156.532 34.4915 156.532 35.1954C156.532 35.4391 156.514 35.7098 156.487 35.9986C156.46 36.2874 156.415 36.5852 156.343 36.901H150.255C150.318 37.6862 150.544 38.2728 150.941 38.6428C151.348 39.0218 151.998 39.2113 152.901 39.2113C153.443 39.2113 153.931 39.1301 154.364 38.9767C154.807 38.8233 155.132 38.6608 155.367 38.4984L156.198 40.0235Z" fill="#67768C"></path> <path d="M164.344 37.3342H160.885V40.8628H158.455V31.748H160.885V35.1322H164.344V31.748H166.783V40.8628H164.344V37.3342Z" fill="#67768C"></path> <path d="M174.92 37.3342H171.461V40.8628H169.031V31.748H171.461V35.1322H174.92V31.748H177.359V40.8628H174.92V37.3342Z" fill="#67768C"></path> <path d="M188.84 31.748H191.27V40.8628H188.84V31.748ZM182.039 38.8323C182.265 38.8774 182.481 38.9045 182.689 38.9225C182.906 38.9406 183.105 38.9496 183.294 38.9496C183.918 38.9496 184.36 38.8503 184.631 38.6518C184.893 38.4623 185.029 38.1374 185.029 37.7042C185.029 37.3342 184.893 37.0454 184.631 36.8379C184.36 36.6393 183.945 36.5401 183.358 36.5401C182.879 36.5401 182.436 36.5852 182.039 36.6935V38.8323ZM182.039 35.0059C182.4 34.9517 182.752 34.9066 183.114 34.8886C183.466 34.8615 183.764 34.8525 184.008 34.8525C184.667 34.8525 185.218 34.9247 185.661 35.0691C186.112 35.2135 186.474 35.412 186.754 35.6647C187.025 35.9264 187.232 36.2242 187.35 36.5762C187.476 36.9191 187.531 37.2891 187.531 37.6862C187.531 38.2276 187.458 38.7059 187.296 39.112C187.142 39.5272 186.889 39.8701 186.537 40.1499C186.176 40.4296 185.724 40.6372 185.164 40.7725C184.595 40.9169 183.909 40.9801 183.105 40.9801C182.337 40.9801 181.678 40.9711 181.127 40.953C180.576 40.944 180.07 40.9169 179.609 40.8808V31.748H182.039V35.0059Z" fill="#67768C"></path> <path d="M196.654 28.499C196.744 28.9863 196.907 29.3112 197.142 29.4827C197.368 29.6632 197.666 29.7444 198.045 29.7444C198.424 29.7444 198.731 29.6542 198.957 29.4737C199.183 29.2932 199.337 28.9773 199.436 28.5171L201.242 28.9863C201.089 29.7444 200.71 30.322 200.113 30.701C199.508 31.08 198.786 31.2786 197.955 31.2786C197.548 31.2786 197.16 31.2334 196.799 31.1522C196.437 31.071 196.103 30.9356 195.796 30.7551C195.498 30.5656 195.236 30.331 195.028 30.0422C194.811 29.7534 194.667 29.4015 194.586 28.9863L196.654 28.499ZM199.571 36.7474L199.68 35.1952L198.578 36.7294L194.983 40.8626H193.52V31.7478H195.959V36.0345L195.868 37.2799H196.076C196.22 37.0904 196.356 36.8828 196.5 36.6572C196.645 36.4406 196.79 36.233 196.925 36.0345L200.547 31.7478H202.001V40.8626H199.571V36.7474Z" fill="#67768C"></path> <path d="M56.5696 57.6397L56.949 59.0926H57.1206L57.4548 57.6397L58.9993 52.5859H61.4832L58.4664 60.8343C58.2045 61.5202 57.9696 62.1339 57.7438 62.6753C57.518 63.2168 57.2651 63.6771 57.0032 64.0651C56.7322 64.4441 56.4341 64.7419 56.109 64.9405C55.7748 65.139 55.3864 65.2473 54.9348 65.2473C54.6367 65.2473 54.3477 65.2202 54.0767 65.1661C53.8057 65.1119 53.5709 65.0398 53.3722 64.9315L53.878 63.0544C54.0496 63.1175 54.2302 63.1446 54.4109 63.1446C54.5735 63.1446 54.736 63.1266 54.8806 63.0905C55.0341 63.0544 55.1696 62.9912 55.2961 62.8919C55.4225 62.7927 55.549 62.6573 55.6573 62.4768C55.7657 62.2963 55.8651 62.0526 55.9464 61.7548L51.7734 52.5859H54.7089L56.5696 57.6397Z" fill="#67768C"></path> <path d="M68.5473 58.1721H65.0879V61.7007H62.6582V52.5859H65.0879V55.9701H68.5473V52.5859H70.9861V61.7007H68.5473V58.1721Z" fill="#67768C"></path> <path d="M79.2861 57.5855L79.3854 56.0423L78.2925 57.5675L74.6976 61.7007H73.2344V52.5859H75.6641V56.8726L75.5828 58.127H75.7905C75.926 57.9284 76.0705 57.7209 76.215 57.4953C76.3596 57.2787 76.5041 57.0711 76.6396 56.8726L80.2525 52.5859H81.7158V61.7007H79.2861V57.5855Z" fill="#67768C"></path> <path d="M86.3494 59.842C86.5752 59.8871 86.7829 59.9142 86.9455 59.9322C87.1171 59.9412 87.3158 59.9503 87.5507 59.9503C88.3365 59.9503 88.8784 59.851 89.1855 59.6615C89.4926 59.472 89.6462 59.1922 89.6462 58.8403C89.6462 58.5154 89.5197 58.2446 89.2488 58.0461C88.9868 57.8476 88.4991 57.7393 87.7946 57.7393H86.3494V59.842ZM87.8217 56.3044C88.2913 56.3044 88.6617 56.2141 88.9507 56.0336C89.2488 55.8531 89.3933 55.6185 89.3933 55.3297C89.3933 55.0139 89.2668 54.7702 89.0139 54.5987C88.7701 54.4273 88.3184 54.337 87.6681 54.337C87.4333 54.337 87.2436 54.346 87.0991 54.3551C86.9455 54.3641 86.801 54.3821 86.6745 54.3912C86.6294 54.3912 86.5752 54.3912 86.5029 54.4002C86.4307 54.4002 86.3855 54.4092 86.3494 54.4092V56.3044H87.8217ZM83.9648 52.5863C84.4435 52.5502 84.9945 52.5141 85.6358 52.478C86.2681 52.4419 86.9726 52.4238 87.7404 52.4238C89.1765 52.4238 90.1972 52.6224 90.7933 53.0014C91.3985 53.3804 91.7056 53.949 91.7056 54.707C91.7056 55.1312 91.5701 55.5463 91.2991 55.9344C91.0372 56.3314 90.6217 56.6292 90.0526 56.8188V56.9632C90.7662 57.1075 91.2901 57.3693 91.6243 57.7302C91.9494 58.1002 92.1211 58.5695 92.1211 59.1471C92.1211 60.0495 91.7327 60.7264 90.9739 61.1776C90.2062 61.6288 88.9868 61.8544 87.3249 61.8544C86.7739 61.8544 86.1958 61.8454 85.5907 61.8183C84.9855 61.7822 84.4435 61.7461 83.9648 61.701V52.5863Z" fill="#67768C"></path> <path d="M98.001 54.2374C97.2875 54.2374 96.7546 54.4269 96.4023 54.815C96.0591 55.203 95.8513 55.6994 95.7971 56.304H99.7262C99.7714 55.6633 99.6539 55.1579 99.3739 54.7879C99.0939 54.4179 98.6423 54.2374 98.001 54.2374ZM101.65 60.8704C101.261 61.1682 100.719 61.4299 100.042 61.6375C99.3649 61.8541 98.6423 61.9624 97.8655 61.9624C96.3029 61.9624 95.1558 61.5382 94.4242 60.6719C93.6926 59.8236 93.3223 58.6414 93.3223 57.1523C93.3223 55.564 93.7377 54.3638 94.5597 53.5516C95.3816 52.7303 96.5378 52.3242 98.0372 52.3242C98.5249 52.3242 99.0036 52.3874 99.4823 52.5047C99.952 52.6311 100.376 52.8296 100.746 53.1184C101.117 53.3981 101.415 53.7772 101.641 54.2645C101.866 54.7428 101.984 55.3294 101.984 56.0423C101.984 56.286 101.966 56.5477 101.939 56.8365C101.912 57.1253 101.857 57.4321 101.794 57.7389H95.7068C95.77 58.5331 95.9958 59.1106 96.3933 59.4897C96.7907 59.8687 97.45 60.0492 98.3533 60.0492C98.8952 60.0492 99.383 59.977 99.8165 59.8146C100.25 59.6611 100.584 59.4987 100.819 59.3363L101.65 60.8704Z" fill="#67768C"></path> <path d="M108.299 54.3547C107.739 54.3547 107.315 54.4811 107.008 54.7247C106.71 54.9774 106.475 55.3655 106.312 55.8799V59.4265C106.511 59.5889 106.728 59.7153 106.972 59.8055C107.216 59.9048 107.523 59.9499 107.893 59.9499C108.688 59.9499 109.266 59.7063 109.654 59.2099C110.034 58.7136 110.223 57.9375 110.223 56.8545C110.223 56.0784 110.079 55.4738 109.781 55.0225C109.492 54.5803 108.995 54.3547 108.299 54.3547ZM103.883 52.5859H105.617L105.915 53.714H106.123C106.484 53.2537 106.899 52.9018 107.378 52.6671C107.848 52.4415 108.408 52.3242 109.04 52.3242C110.268 52.3242 111.19 52.6942 111.804 53.4252C112.418 54.1652 112.725 55.3294 112.725 56.9267C112.725 57.6938 112.626 58.3797 112.436 59.0023C112.238 59.625 111.948 60.1575 111.56 60.5997C111.181 61.0419 110.711 61.3848 110.151 61.6195C109.582 61.8631 108.941 61.9804 108.209 61.9804C107.812 61.9804 107.477 61.9443 107.188 61.8631C106.89 61.7909 106.601 61.6917 106.312 61.5653V65.1571H103.883V52.5859Z" fill="#67768C"></path> <path d="M121.441 61.1412C121.052 61.4119 120.583 61.6104 120.032 61.7548C119.481 61.8902 118.912 61.9624 118.316 61.9624C117.53 61.9624 116.861 61.8451 116.328 61.6104C115.786 61.3848 115.344 61.0509 115.01 60.6268C114.666 60.1936 114.414 59.6882 114.269 59.1016C114.115 58.5241 114.043 57.8743 114.043 57.1523C114.043 55.6362 114.414 54.454 115.163 53.5967C115.913 52.7484 116.997 52.3242 118.424 52.3242C119.119 52.3242 119.688 52.3784 120.131 52.4867C120.583 52.595 120.98 52.7393 121.323 52.9108L120.736 54.8601C120.429 54.7338 120.131 54.6345 119.842 54.5713C119.544 54.5081 119.201 54.4811 118.803 54.4811C118.072 54.4811 117.512 54.6886 117.123 55.1128C116.735 55.5369 116.545 56.2138 116.545 57.1523C116.545 57.5223 116.59 57.8653 116.681 58.1811C116.78 58.506 116.925 58.7858 117.114 59.0294C117.313 59.2731 117.566 59.4626 117.864 59.598C118.162 59.7424 118.523 59.8055 118.93 59.8055C119.408 59.8055 119.797 59.7604 120.077 59.6792C120.366 59.5889 120.637 59.4716 120.89 59.3182L121.441 61.1412Z" fill="#67768C"></path> <path d="M129.019 57.5855L129.127 56.0423L128.034 57.5675L124.43 61.7007H122.967V52.5859H125.406V56.8726L125.315 58.127H125.523C125.668 57.9284 125.803 57.7209 125.957 57.4953C126.101 57.2787 126.237 57.0711 126.381 56.8726L129.994 52.5859H131.457V61.7007H129.019V57.5855Z" fill="#67768C"></path> <path d="M140.931 54.7338H138.104V61.7007H135.566V54.7338H132.73V52.5859H140.931V54.7338Z" fill="#67768C"></path> <path d="M146.47 54.2374C145.747 54.2374 145.214 54.4269 144.871 54.815C144.519 55.203 144.32 55.6994 144.257 56.304H148.186C148.231 55.6633 148.113 55.1579 147.842 54.7879C147.562 54.4179 147.102 54.2374 146.47 54.2374ZM150.119 60.8704C149.721 61.1682 149.188 61.4299 148.511 61.6375C147.833 61.8541 147.102 61.9624 146.325 61.9624C144.762 61.9624 143.615 61.5382 142.884 60.6719C142.152 59.8236 141.791 58.6414 141.791 57.1523C141.791 55.564 142.206 54.3638 143.028 53.5516C143.85 52.7303 145.006 52.3242 146.497 52.3242C146.984 52.3242 147.472 52.3874 147.942 52.5047C148.421 52.6311 148.845 52.8296 149.215 53.1184C149.586 53.3981 149.884 53.7772 150.11 54.2645C150.335 54.7428 150.444 55.3294 150.444 56.0423C150.444 56.286 150.435 56.5477 150.399 56.8365C150.372 57.1253 150.326 57.4321 150.254 57.7389H144.175C144.23 58.5331 144.455 59.1106 144.862 59.4897C145.259 59.8687 145.91 60.0492 146.813 60.0492C147.355 60.0492 147.851 59.977 148.285 59.8146C148.719 59.6611 149.053 59.4987 149.279 59.3363L150.119 60.8704Z" fill="#67768C"></path> <path d="M159.72 54.7338H156.893V61.7007H154.354V54.7338H151.518V52.5859H159.72V54.7338Z" fill="#67768C"></path> <path d="M38.2431 31.7852H28.7139L28.6688 47.6141C28.6688 52.8935 24.3874 57.1801 19.1035 57.1801C14.0273 57.1801 9.88142 53.2364 9.55625 48.2459H9.57432V31.7852H0.0451619L0.00903237 47.6141C0.00903237 47.6683 0 47.7134 0 47.7676C0 58.3082 8.55366 66.8544 19.1035 66.8544C29.3552 66.8544 37.7192 58.7775 38.1708 48.6429L38.2431 31.7852Z" fill="#0B9C5B"></path> <path d="M38.225 19.1137L31.8572 12.7424L19.1215 25.476L6.37685 12.7334L0 19.1047L14.3705 33.4717V50.9341H23.8997V33.4446L38.225 19.1137Z" fill="#025FA6"></path> <path d="M15.9335 3.18565L19.1129 0L22.3013 3.18565L19.1129 6.36227L22.3013 9.54792L25.4898 6.36227L28.6692 9.54792L19.1129 19.1049L9.55664 9.54792L12.7451 6.36227L15.9335 9.54792L19.1129 6.36227L15.9335 3.18565Z" fill="#0B9C5B"></path> </g> <defs> <clipPath id="clip0_945_5936"> <rect width="202" height="67" fill="white"></rect> </clipPath> </defs> </svg> 